<?xml version="1.0" encoding="UTF-8" standalone="no"?> <!-- Created with Vectornator for iOS (http://vectornator.io/) --><!DOCTYPE svg PUBLIC "-//W3C//DTD SVG 1.1//EN" "http://www.w3.org/Graphics/SVG/1.1/DTD/svg11.dtd">
<svg height="100%" style="fill-rule:nonzero;clip-rule:evenodd;stroke-linecap:round;stroke-linejoin:round;" xmlns:xlink="http://www.w3.org/1999/xlink" xmlns="http://www.w3.org/2000/svg" xml:space="preserve" width="100%" xmlns:vectornator="http://vectornator.io" version="1.1" viewBox="0 0 576 512">
<metadata>
<vectornator:setting key="DimensionsVisible" value="1"/>
<vectornator:setting key="PencilOnly" value="0"/>
<vectornator:setting key="SnapToPoints" value="0"/>
<vectornator:setting key="OutlineMode" value="0"/>
<vectornator:setting key="CMYKEnabledKey" value="0"/>
<vectornator:setting key="RulersVisible" value="1"/>
<vectornator:setting key="SnapToEdges" value="0"/>
<vectornator:setting key="GuidesVisible" value="1"/>
<vectornator:setting key="DisplayWhiteBackground" value="0"/>
<vectornator:setting key="doHistoryDisabled" value="0"/>
<vectornator:setting key="SnapToGuides" value="1"/>
<vectornator:setting key="TimeLapseWatermarkDisabled" value="0"/>
<vectornator:setting key="Units" value="Points"/>
<vectornator:setting key="DynamicGuides" value="0"/>
<vectornator:setting key="IsolateActiveLayer" value="0"/>
<vectornator:setting key="SnapToGrid" value="0"/>
</metadata>
<defs/>
<g id="Untitled" vectornator:layerName="Untitled">
<path d="M528.12+301.319L575.393+93.319C578.806+78.301+567.391+64+551.99+64L159.208+64L150.042+19.19C147.758+8.021+137.93+0+126.529+0L24+0C10.745+0+0+10.745+0+24L0+40C0+53.255+10.745+64+24+64L93.883+64L164.131+407.435C147.325+417.1+136+435.222+136+456C136+486.928+161.072+512+192+512C222.928+512+248+486.928+248+456C248+440.326+241.553+426.165+231.176+416L440.823+416C430.447+426.165+424+440.326+424+456C424+486.928+449.072+512+480+512C510.928+512+536+486.928+536+456C536+433.828+523.112+414.668+504.421+405.595L509.938+381.319C513.351+366.301+501.936+352+486.535+352L218.117+352L211.572+320L504.717+320C515.923+320+525.637+312.246+528.12+301.319Z" opacity="1" fill="#ffffff"/>
</g>
</svg>
